<svg version="1.1" id="Layer_1" xmlns="http://www.w3.org/2000/svg" xmlns:xlink="http://www.w3.org/1999/xlink" x="0px" y="0px" viewBox="0 0 500 500" style="width: 188px;" xml:space="preserve" data-imageid="astronaut-63" imageName="Astronaut" class="illustrations_image">
<style type="text/css">
	.st0_astronaut-63{fill:#231F20;}
	.st1_astronaut-63{fill:#68E1FD;}
	.st2_astronaut-63{fill:#FFFFFF;}
	.st3_astronaut-63{fill:#D1D3D4;}
	.st4_astronaut-63{fill:none;}
</style>
<g id="Astronaut_astronaut-63">
	<path class="st0_astronaut-63" d="M200.4,386.7l-0.2,0.4c-1.6,4-1.7,9.1-1.3,13.4c0.9,10.4,3.4,20.2,14.9,22.7c4.8,1.1,9.7,0.9,14.3-0.8&#10;&#9;&#9;c4.6-1.7,8.2-5.4,9.8-10.1c0.6-2.3,0.9-4.6,0.9-7c0.2-5.8,0.2-11.6,0-17.4c0.1-1.7-0.2-3.4-0.8-5c-1.1-2.7-3.9-4.5-6.8-5.1&#10;&#9;&#9;c-2.9-0.5-5.9-0.4-8.8,0.3c-5,0.9-9.9,2.1-14.6,3.8C204.8,382.9,201.8,383.8,200.4,386.7z"/>
	<path class="st0_astronaut-63" d="M220,424.5c-2.1,0-4.2-0.2-6.3-0.7c-12.1-2.6-14.6-13.2-15.4-23.3c-0.5-5.8,0-10.2,1.3-13.7&#10;&#9;&#9;c0.1-0.1,0.1-0.3,0.2-0.4l0,0c1.4-3,4.4-4,7.3-5l0.4-0.1c4.8-1.7,9.7-2.9,14.7-3.8c3-0.7,6-0.7,9-0.2c3.2,0.5,5.9,2.6,7.3,5.5&#10;&#9;&#9;c0.6,1.7,0.9,3.4,0.9,5.2c0.2,5.8,0.2,11.6,0,17.4c0,2.4-0.3,4.8-0.9,7.1c-1.6,4.9-5.4,8.7-10.2,10.5&#10;&#9;&#9;C225.7,424,222.9,424.5,220,424.5z M201,387l-0.2,0.4c-1.3,3.2-1.7,7.5-1.2,13.1c0.9,10.1,3.2,19.7,14.4,22.1&#10;&#9;&#9;c4.6,1.1,9.5,0.9,14-0.8c4.4-1.6,7.9-5.2,9.4-9.7c0.6-2.2,0.9-4.5,0.8-6.8c0.2-5.7,0.1-11.6,0-17.3c0-1.6-0.2-3.2-0.8-4.7&#10;&#9;&#9;c-1.3-2.5-3.6-4.2-6.4-4.7c-2.8-0.4-5.7-0.4-8.5,0.3c-5,0.9-9.9,2.1-14.6,3.7l-0.4,0.1C204.8,383.6,202.2,384.5,201,387L201,387z"/>
	<path class="st1_astronaut-63 targetColor" d="M268.5,93.7l79.3,18.6c6.7,1.6,10.8,8.2,9.2,14.9l-28.6,121.5c-1.6,6.7-8.2,10.8-14.9,9.2l-79.3-18.6&#10;&#9;&#9;c-6.7-1.6-10.8-8.2-9.2-14.9l28.6-121.5C255.2,96.3,261.9,92.1,268.5,93.7z" style="fill: rgb(104, 225, 253);"/>
	<path class="st2_astronaut-63" d="M202.2,143.4c0,0-7,30.6-2.2,42.3s44.8-4.7,44.8-4.7s-27.6,61.7-40.5,95.5s0,94.5,0,94.5s-11.4,30.3-3.5,38.3&#10;&#9;&#9;s32.7,11.4,36.2-1.5s3.9-38.4,3.9-38.4s-3.7-45.6,8.7-67.5c12.4-21.9,24.9-43.8,24.9-43.8l6.1,17c0,0-27.1,111.8-18.6,115.8&#10;&#9;&#9;s69.2-19.8,62.7-37.8s-21.9-7-21.9-7s39.2-44.2,38.3-66.1S320,226.8,320,226.8l9-31.3c0,0,51.2,55.7,72.1,26.9l-9.5-33.8&#10;&#9;&#9;c0,0-9.9,10.9-21.9-1.5s-11.4-40.3-55.2-51.7S202.2,143.4,202.2,143.4z"/>
	<path class="st0_astronaut-63" d="M221.5,417c-7.9,0-16.9-2.9-21.3-7.3c-7.9-7.9,2.2-36,3.3-38.8c-0.8-3.8-12.4-62,0.1-94.7&#10;&#9;&#9;c11.7-30.5,35.6-84.4,39.9-94c-6.4,2.5-30.6,11.4-40.4,7.3c-1.7-0.6-3-1.9-3.7-3.5c-4.8-11.8,1.9-41.4,2.2-42.7&#10;&#9;&#9;c0-0.2,0.2-0.4,0.5-0.5c0.7-0.2,69.3-19.6,112.7-8.2c31.9,8.3,40.5,25.2,47.3,38.8c2.6,5.2,4.9,9.7,8.2,13.1&#10;&#9;&#9;c3.7,3.9,7.6,5.8,11.5,5.7c3.6-0.2,6.9-1.7,9.4-4.2c0.2-0.2,0.4-0.3,0.6-0.2c0.2,0.1,0.4,0.2,0.5,0.5l9.5,33.8c0,0.2,0,0.4-0.1,0.6&#10;&#9;&#9;c-3.4,5.1-9.1,8.2-15.2,8.5c-10.1,0.6-22.9-5.2-38.1-17.2c-6.7-5.3-13.1-11.1-19-17.3l-8.5,29.9c1.9,3,19.9,32.5,20.8,53.3&#10;&#9;&#9;c0.8,19-27.4,53.7-36,63.8c2.7-1.2,6.7-2.3,10.6-1.1s7,4.7,9,10.2c1.7,4.6-0.6,9.8-6.8,15.4c-15.5,14.1-50.3,26.2-56.8,23.2&#10;&#9;&#9;c-1.6-0.7-5.8-2.7,5.8-60.1c5.4-26.9,11.8-53.7,12.5-56.2l-5.6-15.5c-2.8,4.9-13.5,23.7-24.2,42.5c-12.2,21.5-8.6,66.7-8.6,67.1&#10;&#9;&#9;s-0.4,25.8-3.9,38.7c-1.1,4.1-4.3,7-9.2,8.3C226.1,416.8,223.8,417,221.5,417z M244.7,180.3c0.2,0,0.3,0.1,0.5,0.2&#10;&#9;&#9;c0.2,0.2,0.2,0.5,0.1,0.7c-0.3,0.6-27.7,62-40.5,95.4c-12.7,33.2-0.1,93.5,0,94.1c0,0.1,0,0.2,0,0.4c-0.1,0.3-11.2,30-3.6,37.6&#10;&#9;&#9;c5.4,5.4,18.4,8.4,26.8,6.1c3.1-0.8,7.1-2.8,8.3-7.3c3.4-12.7,3.8-38,3.8-38.3c-0.6-8.5-0.7-17-0.3-25.6c0.6-13,2.6-30.8,9.1-42.2&#10;&#9;&#9;c12.4-21.9,24.9-43.8,24.9-43.8c0.2-0.3,0.6-0.4,0.9-0.2c0.1,0.1,0.2,0.2,0.3,0.3l6.1,17c0,0.1,0,0.3,0,0.4&#10;&#9;&#9;c-10.4,43-24.8,112.3-19,115c5.5,2.6,39.6-8.6,55.3-23c5.7-5.2,7.9-9.9,6.4-14c-1.8-5.1-4.6-8.2-8.2-9.4&#10;&#9;&#9;c-6.1-1.9-12.6,2.7-12.7,2.7c-0.3,0.2-0.7,0.2-0.9-0.1s-0.2-0.7,0.1-0.9l0,0c0.4-0.4,39-44.3,38.1-65.7s-20.6-52.6-20.8-52.9&#10;&#9;&#9;c-0.1-0.2-0.1-0.3-0.1-0.5l9-31.3c0.1-0.2,0.2-0.4,0.5-0.5c0.2-0.1,0.5,0,0.6,0.2c0.3,0.4,33.6,36.2,56.9,34.9&#10;&#9;&#9;c5.6-0.3,10.8-3.1,14-7.7l-9.1-32.4c-2.6,2.4-6,3.7-9.6,3.9h-0.2c-4.2,0-8.4-2.1-12.3-6.1c-3.4-3.5-5.8-8.3-8.4-13.4&#10;&#9;&#9;c-6.8-13.3-15.2-29.9-46.5-38.1c-41.4-10.7-106.1,6.7-111.7,8.2c-0.8,3.6-6.5,30.8-2.2,41.5c0.6,1.3,1.7,2.3,3,2.8&#10;&#9;&#9;c10.5,4.4,40.6-7.8,40.9-7.9C244.5,180.4,244.6,180.3,244.7,180.3L244.7,180.3z"/>
	<path class="st0_astronaut-63" d="M381,213.8c0.3,3.3,1.3,6.5,3,9.3c1.8,2.8,4.7,4.7,8,5.2c3.3,0.4,6.6-1.3,8.1-4.3c0.5-1.2,0.7-2.5,0.8-3.8&#10;&#9;&#9;c0.6-6.7-0.3-13.4-2.5-19.7c-0.8-2.4-2-4.6-3.6-6.6C384.6,182.6,380.2,207.1,381,213.8z"/>
	<path class="st0_astronaut-63" d="M392.9,229.1c-0.3,0-0.7,0-1-0.1c-3.5-0.5-6.6-2.6-8.4-5.6c-1.8-2.9-2.9-6.2-3.1-9.6&#10;&#9;&#9;c-0.6-5.4,1.8-20.5,7.6-23.1c2.3-1,4.8-0.1,7.4,2.8c1.7,2,2.9,4.3,3.7,6.8c2.2,6.4,3.1,13.2,2.5,19.9c-0.1,1.4-0.4,2.7-0.9,4&#10;&#9;&#9;C399.3,227.3,396.2,229.1,392.9,229.1z M389.8,191.7c-0.4,0-0.9,0.1-1.3,0.3c-5,2.2-7.4,16.6-6.8,21.8l0,0c0.2,3.2,1.2,6.3,2.9,9&#10;&#9;&#9;c1.7,2.7,4.4,4.5,7.5,5c3.1,0.4,6.1-1.2,7.5-3.9c0.4-1.1,0.7-2.3,0.8-3.6c0.6-6.6-0.3-13.2-2.5-19.4c-0.7-2.3-1.9-4.5-3.4-6.4&#10;&#9;&#9;C392.7,192.6,391.2,191.7,389.8,191.7L389.8,191.7z"/>
	<path class="st0_astronaut-63" d="M220.4,164c5.1-0.8,9.3-4.5,12.4-8.6c1.5-2,2.9-4.4,3-6.9c0-3.4-2.2-6.3-5.4-7.3c-2.2-0.6-4.6-0.1-6.8,0.3&#10;&#9;&#9;c-6.4,1.3-13.4,1.9-19.4,4.7c-6.4,3-2.7,8.7,1.4,12.5C209.3,162.2,215.1,164.8,220.4,164z"/>
	<path class="st0_astronaut-63" d="M218.3,164.8c-5,0-10.1-2.7-13.2-5.6c-2.5-2.4-5.5-6-4.9-9.3c0.3-1.8,1.6-3.2,3.8-4.3c4.5-2.1,9.4-3,14.3-3.8&#10;&#9;&#9;c1.7-0.3,3.5-0.6,5.2-1c2.2-0.5,4.7-1,7.1-0.3c3.5,1,6,4.3,5.9,8c-0.1,2.9-1.7,5.4-3.2,7.3c-2.7,3.5-7.1,7.9-12.8,8.9l0,0&#10;&#9;&#9;C219.8,164.7,219.1,164.8,218.3,164.8z M220.3,164L220.3,164z M228.1,141.5c-1.5,0.1-3,0.3-4.4,0.6c-1.7,0.4-3.5,0.7-5.3,1&#10;&#9;&#9;c-4.7,0.8-9.6,1.6-13.9,3.7c-1.8,0.9-2.8,1.9-3,3.3c-0.5,2.9,2.6,6.3,4.5,8.1c3.3,3.2,9,6,14.2,5.1l0,0c5.4-0.9,9.5-5,12-8.4&#10;&#9;&#9;c1.3-1.7,2.8-4,2.9-6.5c0-3.1-2-5.8-4.9-6.6C229.5,141.6,228.8,141.5,228.1,141.5L228.1,141.5z"/>
	<path class="st2_astronaut-63" d="M230.5,148.9c0.9-0.7,18.9-5.5,18.9-12.9s-16.9-2.7-16.9-2.7s3.2-28.1-0.7-29.3s-7.7,10.7-7.5,22.5&#10;&#9;&#9;c0,0,0.2-19.2-4.5-18.4s-4,22.7-4,22.7s-1.5-20.4-7.7-17.2s-3.2,18.6-3.2,18.6s-1-16.7-4.7-11.9s-0.2,24.6,1.7,28.6&#10;&#9;&#9;S219.1,157.4,230.5,148.9z"/>
	<path class="st0_astronaut-63" d="M215.5,154.4c-2.2,0-4.3-0.2-6.4-0.7c-3.9-0.9-6.9-2.6-7.8-4.4c-2.1-4.2-5.7-24.2-1.7-29.3&#10;&#9;&#9;c0.9-1.1,1.7-1.2,2.2-1c0.7,0.2,1.3,1.1,1.8,2.3c0.4-3.5,1.5-6.8,4.1-8.1c0.9-0.5,2.1-0.5,3.1,0c2.1,1.2,3.5,5.1,4.4,8.9&#10;&#9;&#9;c0.3-6.5,1.3-14,4.5-14.5c0.7-0.1,1.4,0.1,1.9,0.6c1.5,1.2,2.3,4.6,2.8,8c1-5.8,2.8-10.6,5-12.2c0.7-0.6,1.7-0.8,2.6-0.5&#10;&#9;&#9;c4,1.2,2.1,21.5,1.3,29.1c2.9-0.7,11.6-2.5,15.2,0.2c1.1,0.8,1.7,2.1,1.6,3.4c0,6.6-12.2,11-17.4,12.8c-0.8,0.3-1.6,0.6-1.7,0.6&#10;&#9;&#9;C226.4,152.7,221,154.4,215.5,154.4z M201.4,120.1c-0.2,0-0.5,0.2-0.8,0.6c-3.6,4.5-0.1,24.1,1.8,27.9c0.6,1.2,2.9,2.8,6.9,3.7&#10;&#9;&#9;c2.7,0.6,12.2,2.3,20.7-4l0,0c0.6-0.3,1.3-0.6,2-0.8c4.5-1.6,16.6-5.9,16.6-11.6c0-0.9-0.4-1.8-1.1-2.4c-3.7-2.8-14.9,0.2-15,0.3&#10;&#9;&#9;c-0.4,0.1-0.7-0.1-0.8-0.5c0-0.1,0-0.2,0-0.2c1.5-13.2,1.9-28-0.3-28.6c-0.5-0.1-1,0-1.4,0.3c-2.5,1.9-5.1,10-5.2,19.5&#10;&#9;&#9;c0,1,0,1.8,0,2.1c0,0.4-0.3,0.7-0.7,0.7l0,0c-0.4,0-0.7-0.3-0.7-0.7c0-0.6,0-1.3,0-1.9c-0.1-4.9-0.7-13.7-2.8-15.5&#10;&#9;&#9;c-0.2-0.2-0.5-0.3-0.9-0.3c-2.9,0.5-3.7,13.2-3.4,22c0,0.4-0.3,0.6-0.7,0.6c-0.3,0-0.6-0.2-0.6-0.6c-0.3-4-1.8-14.9-4.9-16.7&#10;&#9;&#9;c-0.6-0.3-1.3-0.3-1.8,0c-3.2,1.7-3.7,7.2-3.6,11.7c0.3,2.1,0.6,4.2,0.7,6.4c0,0.3-0.2,0.6-0.6,0.7c-0.3,0.1-0.7-0.2-0.7-0.5&#10;&#9;&#9;c-0.4-2.1-0.6-4.2-0.7-6.3c-0.5-3.2-1.3-5.7-2.1-5.9L201.4,120.1z"/>
	<path class="st2_astronaut-63" d="M387.3,200.5c0.4-1.1-0.3-19.7,6.9-21.8s7.5,15.3,7.5,15.3s25.9-11.3,28.3-7.8s-8,10.5-19.4,13.7&#10;&#9;&#9;c0,0,18.3-5.8,18.9-1.1s-20.6,10.4-20.6,10.4s19.9-4.5,18.7,2.4s-16.9,8.5-16.9,8.5s16.2-3.9,12.8,1s-23.5,7.4-27.9,6.7&#10;&#9;&#9;S382.5,213.9,387.3,200.5z"/>
	<path class="st0_astronaut-63" d="M397.9,228.6c-0.8,0-1.6,0-2.4-0.1c-2-0.3-4.5-2.7-6.5-6.1c-1.5-2.5-6-11.6-2.3-22.1c0-0.2,0.1-1,0.1-1.8&#10;&#9;&#9;c0.2-5.5,0.9-18.5,7.2-20.4c1.3-0.4,2.7-0.2,3.7,0.6c3.6,2.6,4.4,11.5,4.6,14.4c7-3,25.9-10.7,28.2-7.2c0.5,0.8,0.6,1.8,0.2,2.6&#10;&#9;&#9;c-0.9,2.5-4.9,5.7-10.2,8.3c3.5-0.6,6.9-0.8,8.5,0.3c0.6,0.4,1,1,1.1,1.7c0.4,3.2-6.5,6.3-12.6,8.5c3.9-0.3,8-0.1,9.8,1.6&#10;&#9;&#9;c0.8,0.8,1.1,1.9,0.9,2.9c-0.5,2.9-3.4,5-6.6,6.3c1,0,2,0.3,2.7,1.1c0.3,0.4,0.5,1.2-0.3,2.4C420.8,226.2,404.8,228.6,397.9,228.6z&#10;&#9;&#9; M395.3,179.1c-0.3,0-0.7,0.1-1,0.2c-5.4,1.6-6,14.4-6.2,19.2c0,0.7,0,1.5-0.2,2.2l0,0c-3.5,9.9,0.8,18.6,2.2,21&#10;&#9;&#9;c2,3.5,4.3,5.3,5.6,5.5c4.2,0.7,23.9-1.7,27.2-6.4c0.3-0.4,0.4-0.8,0.3-0.9c-0.5-0.7-3.1-0.7-6.2-0.2c-2.1,0.5-4.1,0.9-6.2,1.2&#10;&#9;&#9;c-0.4,0-0.7-0.3-0.7-0.6c0-0.3,0.2-0.6,0.5-0.7c1.2-0.3,3.7-0.9,6.3-1.2c4.3-1.1,9.5-3.2,10.1-6.8c0.2-0.6,0-1.3-0.5-1.7&#10;&#9;&#9;c-2.6-2.5-13.4-0.8-17.4,0.1c-0.4,0.1-0.7-0.1-0.8-0.5c-0.1-0.3,0.1-0.7,0.5-0.8c8.5-2.3,20.4-6.8,20.1-9.7c0-0.3-0.2-0.6-0.5-0.8&#10;&#9;&#9;c-2.4-1.5-10.9,0.4-15.7,1.8c-0.6,0.2-1.2,0.4-1.9,0.6c-0.4,0.1-0.7-0.1-0.8-0.4c-0.1-0.4,0.1-0.7,0.4-0.8l0,0c0.3-0.1,1-0.3,2-0.6&#10;&#9;&#9;c9-2.9,16-7.7,17.1-10.7c0.2-0.5,0.2-1-0.1-1.4c-1.3-1.9-15.2,2.8-27.5,8.1c-0.2,0.1-0.4,0.1-0.6,0c-0.2-0.1-0.4-0.4-0.4-0.7&#10;&#9;&#9;c0-0.1-0.3-11.6-4.1-14.4C396.4,179.3,395.9,179.1,395.3,179.1z M387.3,200.5L387.3,200.5z M387.3,200.5L387.3,200.5z"/>
	<path class="st0_astronaut-63" d="M322.7,217.5c0,0-18.3,4.1-28.9-1.8l-3.7,10.6c0,0,22.8,7.1,34.5,1.7L322.7,217.5z"/>
	<path class="st0_astronaut-63" d="M312.9,230.7c-10.9,0-22.4-3.6-23.1-3.8c-0.2,0-0.3-0.2-0.4-0.3c-0.1-0.2-0.1-0.4,0-0.5l3.7-10.6&#10;&#9;&#9;c0.1-0.3,0.5-0.5,0.8-0.4c0,0,0.1,0,0.1,0c10.2,5.7,28.3,1.8,28.5,1.8c0.2,0,0.4,0,0.5,0.1c0.2,0.1,0.3,0.3,0.3,0.4l1.8,10.5&#10;&#9;&#9;c0.1,0.3-0.1,0.6-0.4,0.7C321,230.1,317,230.8,312.9,230.7z M290.8,225.9c3.7,1.1,22.5,6.1,32.9,1.7l-1.6-9.3&#10;&#9;&#9;c-3.4,0.7-18.3,3.2-28-1.7L290.8,225.9z"/>
	<path class="st0_astronaut-63" d="M276.8,210.8c0,0-31.3-11.2-38.8-17.3l-6.7,11.9c0,0,32.6,14.6,42.5,15.2L276.8,210.8z"/>
	<path class="st0_astronaut-63" d="M273.8,221.2L273.8,221.2c-9.9-0.6-41.4-14.6-42.8-15.2c-0.2-0.1-0.3-0.2-0.4-0.4c-0.1-0.2,0-0.4,0.1-0.5&#10;&#9;&#9;l6.7-11.9c0.1-0.2,0.3-0.3,0.4-0.3c0.2,0,0.4,0,0.5,0.1c7.3,6.1,38.3,17.1,38.6,17.2c0.3,0.1,0.5,0.5,0.4,0.8l-3,9.7&#10;&#9;&#9;C274.3,221,274.1,221.2,273.8,221.2z M232.2,205.1c4.6,2,31.7,13.9,41.1,14.8l2.6-8.6c-4.4-1.6-29.9-10.9-37.8-16.8L232.2,205.1z"/>
	<path class="st0_astronaut-63" d="M204.1,371.6c-0.2,0-0.5-0.1-0.6-0.3c-0.2-0.3-0.1-0.7,0.2-0.9c0.1-0.1,13.4-7.4,24.4,0&#10;&#9;&#9;c0.3,0.2,0.4,0.6,0.2,0.9c-0.2,0.3-0.6,0.4-0.9,0.2c0,0,0,0-0.1,0c-10.4-7-22.9,0-23.1,0C204.4,371.5,204.3,371.6,204.1,371.6z"/>
	<path class="st0_astronaut-63" d="M266.7,364.4c-0.2,0-0.3-0.1-0.4-0.2c-0.3-0.2-0.3-0.7,0-0.9c9.7-10.8,35.2-17.6,36.2-17.9&#10;&#9;&#9;c0.3-0.1,0.7,0.1,0.8,0.4c0.1,0.3-0.1,0.7-0.4,0.8c0,0-0.1,0-0.1,0c-0.3,0.1-26.1,6.9-35.6,17.5C267,364.3,266.9,364.4,266.7,364.4&#10;&#9;&#9;z"/>
	<path class="st0_astronaut-63" d="M261.8,390.9c0,0-4.8-11.9,7.5-19.9s46.2-26.2,52.8-22.8c5.5,2.8,6.7,8.8,4.8,14.3s-5.6,10-10,13.6&#10;&#9;&#9;c-8.8,7.2-20.2,12.5-31,15.9C280.8,393.5,264.9,398.3,261.8,390.9z"/>
	<path class="st0_astronaut-63" d="M270.4,395.6c-4.9,0-8-1.5-9.2-4.5l0,0c-0.2-0.5-4.9-12.6,7.7-20.7c11.9-7.7,46.4-26.4,53.4-22.9&#10;&#9;&#9;c5.3,2.7,7.3,8.6,5.1,15.1c-1.7,5-5.2,9.8-10.3,13.9c-8,6.5-19.1,12.2-31.3,16C279.5,394.6,274.4,395.6,270.4,395.6z M262.5,390.6&#10;&#9;&#9;c1.3,3.2,6.4,5.9,23.1,0.7c12-3.7,23-9.3,30.8-15.8c4.5-3.4,7.9-8.1,9.8-13.3c2-5.8,0.2-11.1-4.5-13.5&#10;&#9;&#9;c-5.8-2.9-37.4,13.3-52.1,22.8C258,379,262.2,390.1,262.5,390.6L262.5,390.6z"/>
	<path class="st2_astronaut-63" d="M267.3,132.2c0,0,9-10.4,9.5-9.1s53.1,15.2,54.1,14.4s5.2,11.1,5.2,11.1S298.2,166.4,267.3,132.2z"/>
	<path class="st0_astronaut-63" d="M312.5,153.8c-13.4,0-30.5-4.3-45.7-21.2c-0.2-0.3-0.2-0.6,0-0.9c5.6-6.4,8.9-9.6,10-9.4&#10;&#9;&#9;c0.2,0,0.4,0.2,0.5,0.3c2.8,1.7,49.6,14.2,53.3,14.2l0,0c0.2-0.1,0.4-0.1,0.6-0.1c1.3,0.4,3.7,6.5,5.5,11.6c0.1,0.3,0,0.7-0.3,0.8&#10;&#9;&#9;C328.8,152.3,320.7,153.9,312.5,153.8z M268.2,132.2c28.1,30.7,62.3,18,67.1,16.1c-1.6-4.4-3.5-9.2-4.3-10.1&#10;&#9;&#9;c-0.7,0.1-2.9-0.2-11-2.2c-0.4-0.1-38.9-9.7-43.3-12.2C275.5,124.2,271.6,128.2,268.2,132.2L268.2,132.2z M276.2,123.4&#10;&#9;&#9;c0.1,0.1,0.2,0.2,0.3,0.3C276.4,123.6,276.2,123.5,276.2,123.4L276.2,123.4z"/>
	<path class="st0_astronaut-63" d="M224,179.1c-0.2,0-0.3-0.1-0.5-0.2c-0.3-0.3-0.3-0.7,0-0.9c6.2-6.1,9.2-12.9,8.9-19.9c-0.1-3.1-1-6.1-2.4-8.8&#10;&#9;&#9;c-0.2-0.3-0.1-0.7,0.2-0.9c0,0,0,0,0,0c0.3-0.2,0.7-0.1,0.9,0.2c0,0,0,0,0,0c0.1,0.1,9,15-6.6,30.4&#10;&#9;&#9;C224.3,179.1,224.2,179.1,224,179.1z"/>
	<path class="st2_astronaut-63" d="M232.5,133.3c0,0-9.1-1.9-14.3,8.2"/>
	<path class="st0_astronaut-63" d="M218.2,142.1c-0.1,0-0.2,0-0.3-0.1c-0.3-0.2-0.4-0.6-0.3-0.9c5.4-10.4,14.9-8.6,15-8.6&#10;&#9;&#9;c0.4,0.1,0.6,0.4,0.5,0.8c-0.1,0.4-0.4,0.6-0.8,0.5c-0.4-0.1-8.7-1.6-13.6,7.9C218.7,142,218.4,142.1,218.2,142.1z"/>
	<path class="st2_astronaut-63" d="M401.7,194c0,0,5.6,6.8-4.1,15.7"/>
	<path class="st0_astronaut-63" d="M397.6,210.4c-0.2,0-0.4-0.1-0.5-0.2c-0.3-0.3-0.3-0.7,0-0.9c0,0,0,0,0,0c9.1-8.4,4.1-14.7,4-14.8&#10;&#9;&#9;c-0.2-0.3-0.1-0.7,0.2-0.9c0.3-0.2,0.6-0.1,0.8,0.1c0.1,0.1,5.9,7.4-4.1,16.6C397.9,210.3,397.7,210.4,397.6,210.4z"/>
	<polygon class="st0_astronaut-63" points="297.9,213.2 274.6,207 269.2,221.4 292.5,228.8 &#9;"/>
	<path class="st0_astronaut-63" d="M292.5,229.5c-0.1,0-0.1,0-0.2,0L269,222c-0.3-0.1-0.5-0.5-0.4-0.8c0,0,0,0,0-0.1l5.4-14.4&#10;&#9;&#9;c0.1-0.3,0.5-0.5,0.8-0.4l23.4,6.1c0.2,0,0.3,0.2,0.4,0.3c0.1,0.2,0.1,0.4,0,0.5l-5.5,15.7C293,229.3,292.8,229.5,292.5,229.5z&#10;&#9;&#9; M270,221l22,7.1l5-14.4l-22-5.9L270,221z"/>
	<path class="st2_astronaut-63" d="M265.1,252c0,0,8.7,11,22.6,6.1"/>
	<path class="st0_astronaut-63" d="M280.7,260c-10,0-16.1-7.5-16.2-7.6c-0.2-0.3-0.2-0.7,0.1-0.9c0,0,0,0,0,0c0.3-0.2,0.7-0.2,0.9,0.1&#10;&#9;&#9;c0,0,0,0,0,0c0.4,0.4,8.6,10.5,21.9,5.9c0.3-0.1,0.7,0.1,0.8,0.4c0.1,0.3-0.1,0.7-0.4,0.8C285.6,259.6,283.2,260,280.7,260z"/>
	<path class="st3_astronaut-63" d="M223.3,307.5c-4.4,0.1-8.7-0.8-12.6-2.8c-3.1-1.5-5.6-4-7.2-7c-0.1-0.3,0-0.7,0.4-0.9s0.7,0,0.9,0.4&#10;&#9;&#9;c0.3,0.6,6.9,15,34,6.3c0.3-0.1,0.7,0.1,0.8,0.4c0.1,0.3-0.1,0.7-0.4,0.8C234,306.5,228.7,307.4,223.3,307.5z"/>
	<path class="st3_astronaut-63" d="M327.8,290.6c-0.2,0-0.3-0.1-0.4-0.2c-19.9-18-38.5-3.6-39.3-3c-0.2,0.3-0.7,0.3-0.9,0.1s-0.3-0.7-0.1-0.9&#10;&#9;&#9;c0.1-0.1,0.1-0.1,0.2-0.1c0.2-0.2,20.2-15.8,41,3c0.3,0.2,0.3,0.7,0,0.9C328.2,290.5,328,290.5,327.8,290.6L327.8,290.6z"/>
	<path class="st2_astronaut-63" d="M369.7,187c0,0-10.7-3-16.9,10.9"/>
	<path class="st0_astronaut-63" d="M352.8,198.6c-0.1,0-0.2,0-0.3-0.1c-0.3-0.2-0.5-0.5-0.3-0.9c6.3-14.3,17.6-11.3,17.7-11.3&#10;&#9;&#9;c0.4,0.1,0.6,0.5,0.5,0.8c-0.1,0.3-0.5,0.6-0.8,0.5c-0.4-0.1-10.3-2.6-16.1,10.6C353.3,198.4,353.1,198.6,352.8,198.6z"/>
	<path class="st2_astronaut-63" d="M232.5,185.3c0,0,18.1-5.8,25.6-9.5"/>
	<path class="st0_astronaut-63" d="M232.5,186c-0.3,0-0.5-0.2-0.6-0.5c-0.1-0.3,0.1-0.7,0.4-0.8c0.2-0.1,18.2-5.8,25.5-9.5&#10;&#9;&#9;c0.3-0.1,0.7,0.1,0.8,0.4c0.1,0.3,0,0.6-0.3,0.8c-7.4,3.8-25,9.3-25.7,9.6C232.6,186,232.6,186,232.5,186z"/>
	<line class="st4_astronaut-63" x1="324.5" y1="209.7" x2="336" y2="170.3"/>
	<path class="st0_astronaut-63" d="M324.5,210.4c-0.1,0-0.1,0-0.2,0c-0.4-0.1-0.6-0.5-0.5-0.8c0,0,0,0,0,0l11.6-39.4c0.1-0.4,0.5-0.6,0.8-0.5&#10;&#9;&#9;c0,0,0,0,0,0c0.3,0.1,0.5,0.5,0.4,0.8c0,0,0,0,0,0l-11.6,39.4C325,210.2,324.8,210.4,324.5,210.4z"/>
	<path class="st2_astronaut-63" d="M346.5,116.6c-0.1,0.6-0.1,1.1-0.2,1.6c-0.4,2.7-1.4,5.2-3,7.4c-1.5,2-4.7,4.6-7.5,4c-2.4-0.5-2.9-3.4-3.4-5.4&#10;&#9;&#9;c-1.6-7.3-0.1-14.9,4.3-20.9c2.4-3.4,6-4.2,8.1,0C346.7,107,347,112.3,346.5,116.6z"/>
	<path class="st0_astronaut-63" d="M336.6,130.4c-0.3,0-0.7,0-1-0.1c-2.6-0.6-3.3-3.3-3.8-5.4l-0.1-0.5c-1.7-7.4-0.1-15.2,4.4-21.4&#10;&#9;&#9;c1.5-2.1,3.4-3.3,5.2-3.1c1.1,0.1,2.7,0.7,4,3.2c1.7,3.4,2.4,8.6,1.8,13.7l0,0c-0.1,0.6-0.1,1.1-0.2,1.6c-0.4,2.8-1.5,5.4-3.2,7.7&#10;&#9;&#9;C342.6,127.6,339.6,130.4,336.6,130.4z M341.1,101.2c-1.3,0-2.7,0.9-3.9,2.6c-4.3,5.8-5.9,13.3-4.3,20.3l0.1,0.5&#10;&#9;&#9;c0.5,1.9,1,4,2.8,4.4c2.5,0.5,5.5-2,6.8-3.8c1.5-2.1,2.5-4.6,2.9-7.1c0.1-0.5,0.2-1,0.2-1.6l0,0c0.6-4.9,0-9.7-1.7-12.9&#10;&#9;&#9;c-0.8-1.5-1.8-2.3-2.9-2.4L341.1,101.2z M346.5,116.6L346.5,116.6z"/>
	<path class="st2_astronaut-63" d="M340.5,124.9c-7.8,17.4-28.3,25.1-45.7,17.3c-17.4-7.8-25.1-28.3-17.3-45.7c7.8-17.4,28.3-25.1,45.7-17.3&#10;&#9;&#9;c9,4.1,15.9,11.8,18.8,21.3c0.6,2,1,4,1.3,6C344.1,112.8,343.2,119.1,340.5,124.9z"/>
	<path class="st0_astronaut-63" d="M309,145.9c-19.5,0-35.2-15.8-35.2-35.3s15.8-35.2,35.3-35.2c15.4,0,29,10.1,33.6,24.8c0.6,2,1,4.1,1.3,6.2&#10;&#9;&#9;c2.4,19.3-11.4,36.9-30.7,39.2C311.9,145.9,310.4,145.9,309,145.9L309,145.9z M309.1,76.8c-1.4,0-2.8,0.1-4.1,0.2&#10;&#9;&#9;c-7.2,0.9-13.9,4-19.1,8.9c-7.9,7.4-11.8,18.1-10.5,28.8c2.3,18.6,19.2,31.8,37.8,29.5c11.8-1.4,21.9-8.9,26.8-19.8l0,0&#10;&#9;&#9;c2.5-5.6,3.5-11.9,2.7-18c-0.2-2-0.7-4-1.3-5.9C337,86.5,323.9,76.8,309.1,76.8z"/>
	<path class="st2_astronaut-63" d="M300.2,119.3l-4.7,12.4c0,0,1.3,9,9.9,9.4c5.2,0.2,10.1-2,13.5-5.9l6.9-23.1c0,0-4.9-5,0.8-17.6&#10;&#9;&#9;c0,0-12.3,1.6-23.6-3.5c0,0-5.8,13.4-6.8,20S300.2,119.3,300.2,119.3z"/>
	<path class="st0_astronaut-63" d="M306.2,141.8c-0.3,0-0.6,0-0.9,0c-9-0.5-10.5-9.9-10.5-10c0-0.1,0-0.2,0-0.3l4.5-11.8&#10;&#9;&#9;c-1.4-0.8-4.6-3.2-3.8-8.8c1-6.6,6.6-19.6,6.8-20.2c0.1-0.2,0.2-0.3,0.4-0.4c0.2-0.1,0.4-0.1,0.5,0c11,5,23.1,3.5,23.2,3.5&#10;&#9;&#9;c0.2,0,0.5,0.1,0.6,0.3c0.2,0.2,0.2,0.5,0.1,0.7c-5.4,12-1,16.8-1,16.9c0.2,0.2,0.2,0.4,0.2,0.7l-6.9,23.1c0,0.1-0.1,0.2-0.1,0.2&#10;&#9;&#9;C316,139.5,311.2,141.7,306.2,141.8z M296.2,131.8c0.2,1.2,1.9,8.3,9.2,8.6c4.9,0.2,9.6-1.9,12.9-5.5l6.8-22.6c-1-1.3-4-6.4,0.5-17&#10;&#9;&#9;c-3.3,0.3-12.9,0.6-22.2-3.4c-1.1,2.7-5.6,13.5-6.4,19.2c-0.9,6,3.4,7.5,3.5,7.6c0.2,0.1,0.3,0.2,0.4,0.4c0.1,0.2,0.1,0.4,0,0.5&#10;&#9;&#9;L296.2,131.8z"/>
	<path class="st2_astronaut-63" d="M311.9,102.1c0,0-5.9,6-5,7.4s4,1.2,4,1.2"/>
	<path class="st0_astronaut-63" d="M310.4,111.4c-1,0-3.3-0.2-4.1-1.5c-0.9-1.6,2.8-5.9,5.2-8.2c0.3-0.3,0.7-0.3,0.9,0c0.3,0.3,0.3,0.7,0,0.9&#10;&#9;&#9;c-2.8,2.9-5.1,6-5,6.7c0.5,0.8,2.5,0.9,3.4,0.8c0.4,0,0.7,0.2,0.7,0.6c0,0,0,0,0,0c0,0.4-0.3,0.7-0.6,0.7L310.4,111.4z"/>
	<path class="st0_astronaut-63" d="M310.2,117.4c-0.5,0-1.1-0.1-1.6-0.2c-3.8-0.9-5.9-4.6-6-4.8c-0.2-0.3-0.1-0.7,0.3-0.9&#10;&#9;&#9;c0.3-0.2,0.7-0.1,0.9,0.3l0,0c0,0,1.9,3.4,5.1,4.1c1.9,0.4,4-0.1,6.1-1.6c0.3-0.2,0.7-0.1,0.9,0.2c0.2,0.3,0.1,0.7-0.2,0.9l0,0&#10;&#9;&#9;C314.1,116.6,312.2,117.4,310.2,117.4z"/>
	
		<ellipse transform="matrix(0.2214 -0.9752 0.9752 0.2214 147.6316 389.0222)" class="st0_astronaut-63" cx="317.4" cy="102.1" rx="1.9" ry="0.8"/>
	<ellipse transform="matrix(0.2214 -0.9752 0.9752 0.2214 142.5285 376.4954)" class="st0_astronaut-63" cx="307" cy="99" rx="1.9" ry="0.8"/>
	<path class="st0_astronaut-63" d="M328.8,103.7c0.4-4.4,0.2-9.2-3-12.6c-4.2-4.5-13.9-8.5-19.7-5c-0.7,0.4-1.3,0.9-1.9,1.5c-1,1-1.9,2-2.6,3.2&#10;&#9;&#9;c-2.9,4.1-5,8.6-6.3,13.4c-1.4,5.4-3.1,11.2-0.5,16.5c1.6,3.4,4.6,5.5,8,6.8c1.6,0.6,3.2,0.7,4.8,1.2c2.2,0.7,4.1,1.8,6.5,2.1&#10;&#9;&#9;c2.8,0.4,5,0.3,6.9-2.1c1.1-1.4,1.9-3,2.4-4.7C325.6,117.4,328.3,110.9,328.8,103.7z M297.2,111.6c-0.1-2.6,0.8-5.1,1.8-7.5&#10;&#9;&#9;l2.9-7.3c0.3-0.9,0.7-1.7,1.4-2.4c1.4-1.4,3.3-0.3,5,0.1c2.8,0.7,5.5,1.6,8.2,2.7c1.4,0.6,4.1,1.6,4.7,3.2&#10;&#9;&#9;c1.2,3.4-0.6,7.4-1.5,10.7c-1,4.1-3,7.8-6,10.7c-2.6,2.4-7,1-9.7-0.6c-2.6-1.5-4.7-3.8-5.9-6.5&#10;&#9;&#9;C297.5,113.7,297.3,112.6,297.2,111.6z"/>
	<path class="st2_astronaut-63" d="M340.5,124.9c-7.8,17.4-28.2,25.2-45.6,17.4c-14.4-6.4-22.6-21.8-20-37.3c2,4.7,14.3,19.6,35.9,23.8&#10;&#9;&#9;C326,131.7,332.7,127.8,340.5,124.9z"/>
	<path class="st0_astronaut-63" d="M309,145.9c-19.4,0-35.2-15.8-35.2-35.2c0-1.9,0.2-3.9,0.5-5.8c0-0.3,0.3-0.5,0.6-0.5c0.3,0,0.6,0.1,0.7,0.4&#10;&#9;&#9;c2.1,4.8,14.3,19.3,35.4,23.4c13.2,2.5,19.7-0.1,26.6-2.8c0.9-0.4,1.8-0.7,2.8-1.1c0.2-0.1,0.5,0,0.7,0.2c0.2,0.2,0.2,0.5,0.1,0.7&#10;&#9;&#9;C335.5,137.8,322.9,146,309,145.9z M275.4,107.1c-2,18.6,11.4,35.3,30,37.3c14,1.5,27.5-5.8,33.9-18.3l-1.2,0.5&#10;&#9;&#9;c-6.8,2.7-13.8,5.4-27.3,2.8C291.3,125.7,279.1,113.2,275.4,107.1L275.4,107.1z"/>
	<path class="st2_astronaut-63" d="M342,100.5c-6.3-5.2-15.3-11.3-24.7-13.1c-10.5-2.1-21.3-2.7-32-1.8c13.9-13.1,35.8-12.4,48.9,1.6&#10;&#9;&#9;C337.8,90.9,340.5,95.5,342,100.5L342,100.5z"/>
	<path class="st0_astronaut-63" d="M342,101.2c-0.2,0-0.3-0.1-0.4-0.2c-6-4.9-15-11.2-24.4-13c-10.5-2.1-21.2-2.7-31.8-1.8&#10;&#9;&#9;c-0.3,0-0.5-0.1-0.7-0.4c-0.1-0.3-0.1-0.6,0.1-0.8c14.2-13.3,36.5-12.6,49.8,1.5c3.7,3.9,6.4,8.6,8,13.7c0.1,0.3,0,0.6-0.3,0.7&#10;&#9;&#9;C342.3,101.1,342.2,101.1,342,101.2z M294.6,84.5c7.7,0,15.3,0.8,22.8,2.2c8.8,1.7,17.2,7.1,23.2,11.8&#10;&#9;&#9;c-6.7-17.5-26.3-26.2-43.8-19.5c-3.5,1.3-6.7,3.2-9.6,5.6C289.7,84.5,292.2,84.5,294.6,84.5z"/>
	<path class="st2_astronaut-63" d="M283.2,99.3c0.5-1.4,0.9-2.8,1.2-4.2c0.5-2.1,2.1-6.9,0.5-8.8c-1.1-1.3-2.5-0.7-3.5,0.4&#10;&#9;&#9;c-4.6,4.9-6.7,11.1-8.1,17.6c-0.3,1.6-0.9,5.8,1.2,6.5c2.6,0.8,5.4-4.2,6.3-5.9C281.7,103.1,282.5,101.2,283.2,99.3z"/>
	<path class="st0_astronaut-63" d="M275.1,111.5c-0.3,0-0.5,0-0.8-0.1c-2.8-0.9-2-5.8-1.6-7.3c1.3-5.9,3.2-12.6,8.3-17.9c0.7-0.8,1.6-1.2,2.6-1.3&#10;&#9;&#9;c0.7,0,1.4,0.4,1.9,1c1.6,1.9,0.6,5.8-0.1,8.3c-0.1,0.4-0.2,0.7-0.2,1c-0.3,1.4-0.7,2.8-1.2,4.2c-0.7,2-1.5,3.9-2.4,5.7&#10;&#9;&#9;C280.4,107.2,277.8,111.5,275.1,111.5z M283.4,86.2c-0.6,0.1-1.2,0.4-1.6,0.9c-4.8,5.1-6.7,11.6-7.9,17.2c-0.5,2.5-0.5,5.3,0.8,5.8&#10;&#9;&#9;c1.6,0.5,3.9-2.4,5.5-5.6c0.9-1.8,1.7-3.7,2.3-5.6l0,0c0.5-1.3,0.8-2.7,1.2-4.1c0.1-0.3,0.2-0.6,0.3-1c0.5-2,1.5-5.8,0.4-7.2&#10;&#9;&#9;C284.1,86.4,283.8,86.2,283.4,86.2L283.4,86.2z"/>
	<path class="st1_astronaut-63 targetColor" d="M269.2,190.1c0,0-17.8,34.7-34.6,37.9s-25.5-8.7-20-15.7s15.4-7.1,15.4-7.1s1.2-0.2,1.2-2.2v-3&#10;&#9;&#9;c0,0-17.5,1.4-22.2,11.1c-4.9,10,4.5,22.2,19.5,22.2c29.1,0,45.9-41.8,45.9-41.8" style="fill: rgb(104, 225, 253);"/>
	<polygon class="st2_astronaut-63" points="274.4,155.9 264.5,190.5 312.6,203.9 322.8,167.7 &#9;"/>
	<path class="st0_astronaut-63" d="M312.6,204.5c-0.1,0-0.1,0-0.2,0l-48-13.4c-0.2,0-0.3-0.2-0.4-0.3c-0.1-0.2-0.1-0.3-0.1-0.5l9.9-34.5&#10;&#9;&#9;c0.1-0.3,0.4-0.5,0.8-0.5l48.4,11.8c0.2,0,0.3,0.2,0.4,0.3c0.1,0.2,0.1,0.3,0.1,0.5L313.2,204C313.1,204.3,312.9,204.5,312.6,204.5&#10;&#9;&#9;z M265.3,190l46.8,13l9.8-34.9l-47.1-11.5L265.3,190z"/>
	<circle class="st1_astronaut-63 targetColor" cx="284.5" cy="173.6" r="8.4" style="fill: rgb(104, 225, 253);"/>
	<circle class="st1_astronaut-63 targetColor" cx="309.6" cy="177.9" r="4.2" style="fill: rgb(104, 225, 253);"/>
	<path class="st3_astronaut-63" d="M307.2,195.8h-0.2l-22.7-6.2c-0.4-0.1-0.6-0.4-0.5-0.8c0.1-0.4,0.4-0.6,0.8-0.5c0,0,0.1,0,0.1,0l22.7,6.1&#10;&#9;&#9;c0.4,0.1,0.6,0.4,0.5,0.8C307.8,195.7,307.6,195.9,307.2,195.8L307.2,195.8z"/>
	<path class="st1_astronaut-63 targetColor" d="M336,214.1c0,0,3.3-1,3.2,1.6s-5,21.3-5,21.3h-6.4L336,214.1z" style="fill: rgb(104, 225, 253);"/>
	<path class="st1_astronaut-63 targetColor" d="M262.1,93.9c0,0,0.8-3.5,2.4-3.5s9.9,1.8,9.9,1.8l-1.5,4.8L262.1,93.9z" style="fill: rgb(104, 225, 253);"/>
	<path class="st2_astronaut-63" d="M294.7,228.2c-0.1,0-0.1,0-0.2,0c-0.3-0.1-0.5-0.5-0.4-0.8c0,0,0,0,0,0l3.2-10.1c0.1-0.3,0.5-0.5,0.8-0.4&#10;&#9;&#9;c0,0,0,0,0,0c0.3,0.1,0.5,0.5,0.4,0.8c0,0,0,0,0,0l-3.2,10.1C295.2,228.1,295,228.2,294.7,228.2z"/>
	<path class="st2_astronaut-63" d="M268.7,219.6c-0.1,0-0.2,0-0.2-0.1c-0.3-0.1-0.5-0.5-0.4-0.8c0,0,0,0,0,0l3.9-9.6c0.1-0.3,0.5-0.5,0.9-0.4&#10;&#9;&#9;c0.3,0.1,0.5,0.5,0.4,0.9l-3.9,9.6C269.2,219.4,269,219.6,268.7,219.6z"/>
</g>
<g id="Stars_astronaut-63">
	<polygon class="st3_astronaut-63" points="141.9,148.9 144.1,157.9 153.1,160.1 144.1,162.4 141.9,171.3 139.6,162.4 130.7,160.1 139.6,157.9 &#9;&#10;&#9;&#9;"/>
	<polygon class="st3_astronaut-63" points="364,337.3 365.8,344.3 372.9,346.1 365.8,347.9 364,354.9 362.3,347.9 355.2,346.1 362.3,344.3 &#9;"/>
	<polygon class="st3_astronaut-63" points="398.9,133.1 399.8,136.6 403.3,137.5 399.8,138.4 398.9,141.9 398,138.4 394.5,137.5 398,136.6 &#9;"/>
	<polygon class="st3_astronaut-63" points="103.8,313.8 104.7,317.3 108.3,318.2 104.7,319.1 103.8,322.6 103,319.1 99.4,318.2 103,317.3 &#9;"/>
	<polygon class="st3_astronaut-63" points="88.8,123.8 89.7,127.4 93.2,128.3 89.7,129.1 88.8,132.7 87.9,129.1 84.4,128.3 87.9,127.4 &#9;"/>
	<polygon class="st3_astronaut-63" points="178.2,132.9 179.2,137 183.3,138 179.2,139.1 178.2,143.2 177.1,139.1 173,138 177.1,137 &#9;"/>
	<polygon class="st3_astronaut-63" points="378,259.4 379,263.5 383.2,264.6 379,265.6 378,269.7 377,265.6 372.9,264.6 377,263.5 &#9;"/>
</g>
<g id="Planets_astronaut-63">
	
		<ellipse transform="matrix(7.088901e-02 -0.9975 0.9975 7.088901e-02 -127.9445 336.5201)" class="st2_astronaut-63" cx="116.7" cy="236.9" rx="47.7" ry="47.7"/>
	<path class="st3_astronaut-63" d="M116.7,285.3c-26.7,0-48.4-21.6-48.4-48.3s21.6-48.4,48.3-48.4c21.3,0,40.1,13.9,46.3,34.2l0,0&#10;&#9;&#9;c7.8,25.5-6.6,52.6-32.1,60.3C126.2,284.6,121.5,285.3,116.7,285.3z M116.7,189.9c-26,0-47,21.1-46.9,47.1s21.1,47,47.1,46.9&#10;&#9;&#9;c4.6,0,9.1-0.7,13.5-2c24.8-7.6,38.8-33.8,31.3-58.7c0,0,0,0,0,0l0,0C155.6,203.5,137.3,190,116.7,189.9L116.7,189.9z"/>
	<path class="st3_astronaut-63" d="M73.8,268.9c-15.8,0-25.8-3.7-27.8-10.4c-2.3-7.6,6.1-17.7,23-27.7c0.3-0.2,0.7-0.1,0.9,0.2&#10;&#9;&#9;c0.2,0.3,0.1,0.7-0.2,0.9l0,0c-16.2,9.5-24.5,19.3-22.4,26.2s14.5,10.3,33.2,9.2c13-0.8,27.8-3.6,43-8.2s29-10.5,40.2-17.1&#10;&#9;&#9;c16.1-9.5,24.5-19.3,22.4-26.2s-14.5-10.3-33.2-9.2c-0.4,0-0.7-0.2-0.7-0.6c0,0,0,0,0,0c0-0.4,0.3-0.7,0.6-0.7&#10;&#9;&#9;c19.7-1.1,32.3,2.6,34.6,10.2s-6.1,17.7-23,27.8c-11.3,6.7-25.3,12.6-40.5,17.3c-15.2,4.6-30.2,7.5-43.3,8.3&#10;&#9;&#9;C78.2,268.8,75.9,268.9,73.8,268.9z"/>
	<path class="st3_astronaut-63" d="M84.2,211.4c-0.2,0-0.3-0.1-0.4-0.1c-0.3-0.2-0.3-0.6-0.1-0.9c0,0,0,0,0,0c1.4-1.7,2.9-3.2,4.7-4.5&#10;&#9;&#9;c0.3-0.2,0.7-0.2,0.9,0.1c0,0,0,0,0,0c0.2,0.3,0.2,0.7-0.1,0.9c-1.7,1.2-3.2,2.6-4.4,4.3C84.6,211.3,84.4,211.4,84.2,211.4z"/>
	<path class="st3_astronaut-63" d="M84.3,222.1h-0.2c-0.4-0.1-0.6-0.5-0.5-0.8c0.5-1.9,1.3-3.6,2.5-5.1c0.2-0.3,0.6-0.4,0.9-0.1c0,0,0,0,0,0&#10;&#9;&#9;c0.3,0.2,0.3,0.6,0.1,0.9c-1.1,1.4-1.8,3-2.3,4.7C84.8,221.9,84.6,222.1,84.3,222.1z"/>
	<path class="st3_astronaut-63" d="M76.8,227.6c-0.1,0-0.1,0-0.2,0c-0.3-0.1-0.5-0.5-0.4-0.8c0,0,0,0,0,0l1.2-3.5c0.1-0.4,0.4-0.6,0.8-0.5&#10;&#9;&#9;c0.4,0.1,0.6,0.4,0.5,0.8c0,0,0,0.1,0,0.1l-1.2,3.5C77.3,227.4,77,227.6,76.8,227.6z"/>
	<circle class="st2_astronaut-63" cx="416.3" cy="314.5" r="35.4"/>
	<path class="st3_astronaut-63" d="M416.3,350.5c-19.9,0-36.1-16.2-36.1-36.1s16.2-36.1,36.1-36.1c19.9,0,36.1,16.2,36.1,36.1c0,0,0,0,0,0&#10;&#9;&#9;C452.4,334.4,436.3,350.5,416.3,350.5z M416.3,279.7c-19.2,0-34.8,15.6-34.8,34.8s15.6,34.8,34.8,34.8s34.8-15.6,34.8-34.8&#10;&#9;&#9;c0,0,0,0,0,0C451.1,295.3,435.5,279.7,416.3,279.7z"/>
	<path class="st3_astronaut-63" d="M445.3,314.7c-0.1,0-0.2,0-0.3-0.1c-0.3-0.2-0.4-0.6-0.3-0.9c0.8-1.4,0.9-3.1,0.5-4.6&#10;&#9;&#9;c-0.1-0.4,0.1-0.7,0.4-0.8c0.4-0.1,0.7,0.1,0.8,0.4l0,0c0.6,1.9,0.4,3.9-0.6,5.6C445.8,314.5,445.6,314.7,445.3,314.7z"/>
	<path class="st3_astronaut-63" d="M444.9,323.9h-0.2c-0.3-0.1-0.5-0.5-0.4-0.8c0.4-1.3,0.7-2.6,0.8-4c0-0.4,0.3-0.6,0.7-0.6s0.6,0.3,0.6,0.7&#10;&#9;&#9;c-0.1,1.5-0.4,3-0.8,4.4C445.4,323.8,445.2,323.9,444.9,323.9z"/>
	<path class="st3_astronaut-63" d="M437.7,327.6c-0.1,0-0.2,0-0.3-0.1c-0.3-0.2-0.4-0.6-0.2-0.9c0,0,0,0,0,0c0.8-1.3,1.5-2.7,2-4.2&#10;&#9;&#9;c0.1-0.3,0.5-0.5,0.9-0.4c0.3,0.1,0.5,0.5,0.4,0.9l0,0c-0.6,1.5-1.3,3-2.1,4.4C438.2,327.5,438,327.6,437.7,327.6z"/>
	<circle class="st2_astronaut-63" cx="153.1" cy="334.5" r="15.4"/>
	<path class="st3_astronaut-63" d="M153.1,350.5c-8.9,0-16.1-7.2-16.1-16.1c0-8.9,7.2-16.1,16.1-16.1s16.1,7.2,16.1,16.1l0,0&#10;&#9;&#9;C169.1,343.3,161.9,350.5,153.1,350.5z M153.1,319.7c-8.2,0-14.8,6.6-14.8,14.8c0,8.2,6.6,14.8,14.8,14.8c8.2,0,14.8-6.6,14.8-14.8&#10;&#9;&#9;c0,0,0,0,0,0C167.8,326.3,161.2,319.7,153.1,319.7z"/>
</g>
</svg>