<svg viewBox="162.27 162.46 143.12 166.14" xmlns="http://www.w3.org/2000/svg"><path d="m304.91 324.8-25.11-33.38c13.01-5.37 22.18-18.08 22.18-32.87 0-19.63-16.13-35.61-35.96-35.61h-37.86c-.15 0-.28.06-.42.09h-6.46c-1.24 0-2.24 1-2.24 2.24v100.96c0 1.24 1 2.24 2.24 2.24h21.89c1.24 0 2.24-1 2.24-2.24v-32.08h8.64l25.2 33.5c.45.6 1.15.95 1.89.95h21.89a2.37 2.37 0 0 0 1.88-3.79zm-40.58-51.64c-.36.03-.72.06-1.08.06h-17.47c-.05 0-.09-.04-.14-.06-.09-.02-.18-.04-.24-.1a.58.58 0 0 1-.21-.43v-28.18c0-.17.08-.32.21-.43.06-.05.14-.07.22-.1.06-.01.1-.06.16-.06h17.46c.42 0 .84.03 1.25.07 7.22.66 12.9 6.96 12.9 14.6.01 7.73-5.76 14.05-13.06 14.63z" fill="#007cf5"/><path d="M244.69 162.46h-24.64c-1.24 0-2.24 1-2.24 2.24v45.53c.3 10.84-.18 23.69-1.52 25.89-.1.13-.2.28-.27.43-1.6 3.33-6.9 6.78-13 6.78-6.32 0-13.77-5.46-15.93-11.68a2.24 2.24 0 0 0-2.8-1.41l-20.46 6.4a2.22 2.22 0 0 0-1.53 2.49c0 .07.03.14.04.2 2.32 17.58 18.94 29.38 41.46 29.38 22.53 0 39.16-11.81 41.48-29.4l.05-.3a317.95 317.95 0 0 0 1.58-28.84V164.7a2.21 2.21 0 0 0-2.22-2.24z" fill="#007cf5"/></svg>